<svg width="24" height="24" viewBox="0 0 24 24" fill="none" xmlns="http://www.w3.org/2000/svg">
<path fill-rule="evenodd" clip-rule="evenodd" d="M7.17 4L9 2H15L16.83 4H20C21.1 4 22 4.9 22 6V18C22 19.1 21.1 20 20 20H4C2.9 20 2 19.1 2 18V6C2 4.9 2.9 4 4 4H7.17ZM7 12C7 14.76 9.24 17 12 17C14.76 17 17 14.76 17 12C17 9.24 14.76 7 12 7C9.24 7 7 9.24 7 12ZM15.1998 12C15.1998 13.7674 13.7671 15.2 11.9998 15.2C10.2325 15.2 8.7998 13.7674 8.7998 12C8.7998 10.2327 10.2325 8.80005 11.9998 8.80005C13.7671 8.80005 15.1998 10.2327 15.1998 12Z" fill="black"/>
</svg>
